<svg width="1200" height="1500" viewBox="0 0 1200 1500" fill="none" xmlns="http://www.w3.org/2000/svg">
  <rect width="1200" height="1500" fill="#07030d"/>
  <rect width="1200" height="1500" fill="url(#grid)" opacity="0.34"/>
  <circle cx="900" cy="285" r="480" fill="url(#violetGlow)" opacity="0.8"/>
  <circle cx="255" cy="985" r="470" fill="url(#blueGlow)" opacity="0.54"/>
  <rect x="120" y="150" width="960" height="1180" rx="70" fill="#111827" fill-opacity="0.76" stroke="white" stroke-opacity="0.12" stroke-width="2"/>
  <rect x="175" y="215" width="850" height="140" rx="34" fill="#0b1020" stroke="white" stroke-opacity="0.1"/>
  <text x="220" y="275" fill="#b9abff" font-family="Arial, sans-serif" font-size="24" font-weight="700" letter-spacing="8">AI PERFORMANCE</text>
  <text x="220" y="330" fill="white" font-family="Arial, sans-serif" font-size="44" font-weight="800">Campaign command center</text>
  <rect x="790" y="252" width="175" height="58" rx="29" fill="#063f2d"/>
  <text x="837" y="291" fill="#74f7bf" font-family="Arial, sans-serif" font-size="24" font-weight="700">Live</text>
  <g filter="url(#softShadow)">
    <rect x="175" y="405" width="258" height="190" rx="32" fill="#1b2130" stroke="white" stroke-opacity="0.11"/>
    <text x="210" y="465" fill="white" font-family="Arial, sans-serif" font-size="28" font-weight="800">4.8x</text>
    <text x="210" y="508" fill="#8c96a8" font-family="Arial, sans-serif" font-size="19" font-weight="700" letter-spacing="3">ROAS LIFT</text>
    <rect x="210" y="545" width="185" height="13" rx="6.5" fill="url(#bar1)"/>
  </g>
  <g filter="url(#softShadow)">
    <rect x="471" y="405" width="258" height="190" rx="32" fill="#1b2130" stroke="white" stroke-opacity="0.11"/>
    <text x="506" y="465" fill="white" font-family="Arial, sans-serif" font-size="28" font-weight="800">31%</text>
    <text x="506" y="508" fill="#8c96a8" font-family="Arial, sans-serif" font-size="19" font-weight="700" letter-spacing="3">CPL DOWN</text>
    <rect x="506" y="545" width="185" height="13" rx="6.5" fill="url(#bar2)"/>
  </g>
  <g filter="url(#softShadow)">
    <rect x="767" y="405" width="258" height="190" rx="32" fill="#1b2130" stroke="white" stroke-opacity="0.11"/>
    <text x="802" y="465" fill="white" font-family="Arial, sans-serif" font-size="28" font-weight="800">128</text>
    <text x="802" y="508" fill="#8c96a8" font-family="Arial, sans-serif" font-size="19" font-weight="700" letter-spacing="3">MEETINGS</text>
    <rect x="802" y="545" width="185" height="13" rx="6.5" fill="url(#bar3)"/>
  </g>
  <rect x="175" y="665" width="535" height="425" rx="42" fill="#0c1220" stroke="white" stroke-opacity="0.1"/>
  <text x="220" y="735" fill="white" font-family="Arial, sans-serif" font-size="30" font-weight="800">Paid channel mix</text>
  <path d="M238 995 C310 900 360 940 420 845 C488 735 558 790 648 704" stroke="url(#line)" stroke-width="14" stroke-linecap="round"/>
  <path d="M238 1027 C318 945 378 980 438 900 C498 818 572 852 648 790" stroke="#38bdf8" stroke-opacity="0.28" stroke-width="10" stroke-linecap="round"/>
  <g fill="white" opacity="0.16">
    <rect x="230" y="792" width="425" height="2"/>
    <rect x="230" y="872" width="425" height="2"/>
    <rect x="230" y="952" width="425" height="2"/>
  </g>
  <circle cx="648" cy="704" r="20" fill="#38bdf8"/>
  <circle cx="420" cy="845" r="17" fill="#9b87f5"/>
  <rect x="755" y="665" width="270" height="425" rx="42" fill="#0c1220" stroke="white" stroke-opacity="0.1"/>
  <text x="800" y="735" fill="white" font-family="Arial, sans-serif" font-size="30" font-weight="800">AI score</text>
  <circle cx="890" cy="890" r="105" stroke="white" stroke-opacity="0.1" stroke-width="28"/>
  <path d="M890 785 A105 105 0 1 1 787 912" stroke="url(#ring)" stroke-width="28" stroke-linecap="round"/>
  <text x="835" y="910" fill="white" font-family="Arial, sans-serif" font-size="50" font-weight="900">89%</text>
  <rect x="175" y="1155" width="850" height="95" rx="30" fill="#ffffff" fill-opacity="0.06" stroke="white" stroke-opacity="0.1"/>
  <text x="220" y="1215" fill="#e8e4ff" font-family="Arial, sans-serif" font-size="26" font-weight="800">Budget shifted to highest-intent audiences automatically</text>
  <defs>
    <pattern id="grid" width="80" height="80" patternUnits="userSpaceOnUse">
      <path d="M 80 0 L 0 0 0 80" fill="none" stroke="white" stroke-opacity="0.08" stroke-width="1"/>
    </pattern>
    <radialGradient id="violetGlow" cx="0" cy="0" r="1" gradientUnits="userSpaceOnUse" gradientTransform="translate(900 285) rotate(90) scale(480)">
      <stop stop-color="#8b2df2"/>
      <stop offset="1" stop-color="#8b2df2" stop-opacity="0"/>
    </radialGradient>
    <radialGradient id="blueGlow" cx="0" cy="0" r="1" gradientUnits="userSpaceOnUse" gradientTransform="translate(255 985) rotate(90) scale(470)">
      <stop stop-color="#38bdf8"/>
      <stop offset="1" stop-color="#38bdf8" stop-opacity="0"/>
    </radialGradient>
    <linearGradient id="bar1" x1="210" y1="545" x2="395" y2="545" gradientUnits="userSpaceOnUse">
      <stop stop-color="#8b2df2"/>
      <stop offset="1" stop-color="#c084fc"/>
    </linearGradient>
    <linearGradient id="bar2" x1="506" y1="545" x2="691" y2="545" gradientUnits="userSpaceOnUse">
      <stop stop-color="#2563eb"/>
      <stop offset="1" stop-color="#38bdf8"/>
    </linearGradient>
    <linearGradient id="bar3" x1="802" y1="545" x2="987" y2="545" gradientUnits="userSpaceOnUse">
      <stop stop-color="#14b8a6"/>
      <stop offset="1" stop-color="#8b2df2"/>
    </linearGradient>
    <linearGradient id="line" x1="238" y1="995" x2="648" y2="704" gradientUnits="userSpaceOnUse">
      <stop stop-color="#8b2df2"/>
      <stop offset="0.54" stop-color="#2563eb"/>
      <stop offset="1" stop-color="#38bdf8"/>
    </linearGradient>
    <linearGradient id="ring" x1="760" y1="790" x2="1010" y2="995" gradientUnits="userSpaceOnUse">
      <stop stop-color="#8b2df2"/>
      <stop offset="1" stop-color="#38bdf8"/>
    </linearGradient>
    <filter id="softShadow" x="135" y="365" width="930" height="270" filterUnits="userSpaceOnUse" color-interpolation-filters="sRGB">
      <feDropShadow dx="0" dy="24" stdDeviation="28" flood-color="#000000" flood-opacity="0.34"/>
    </filter>
  </defs>
</svg>
